<?xml version="1.0" encoding="utf-8"?>
<!-- Generator: Adobe Illustrator 22.0.1, SVG Export Plug-In . SVG Version: 6.00 Build 0)  -->
<svg version="1.1" id="Sun" xmlns="http://www.w3.org/2000/svg" xmlns:xlink="http://www.w3.org/1999/xlink" x="0px" y="0px"
	 viewBox="0 0 512 512" style="enable-background:new 0 0 512 512;" xml:space="preserve">
<style type="text/css">
	.st0{fill:context-fill;}
	.st1{fill:context-fill;}
</style>
<title>Icon_Sun</title>
<g>
	<circle class="st0" cx="255.6" cy="256" r="130"/>
	<path class="st0" d="M256,38L256,38c6.9,0,12.5,5.6,12.5,12.5v35c0,6.9-5.6,12.5-12.5,12.5l0,0c-6.9,0-12.5-5.6-12.5-12.5v-35
		C243.5,43.6,249.1,38,256,38z"/>
	<path class="st1" d="M256,102c-9.1,0-16.5-7.4-16.5-16.5v-35c0-9.1,7.4-16.5,16.5-16.5s16.5,7.4,16.5,16.5v35
		C272.5,94.6,265.1,102,256,102z M256,42c-4.7,0-8.5,3.8-8.5,8.5v35c0,4.7,3.8,8.5,8.5,8.5s8.5-3.8,8.5-8.5v-35
		C264.5,45.8,260.7,42,256,42z"/>
	<path class="st0" d="M101.8,101.8L101.8,101.8c4.9-4.9,12.8-4.9,17.7,0l24.7,24.7c4.9,4.9,4.9,12.8,0,17.7l0,0
		c-4.9,4.9-12.8,4.9-17.7,0l-24.7-24.7C97,114.6,97,106.7,101.8,101.8z"/>
	<path class="st1" d="M135.4,151.9c-4.4,0-8.6-1.7-11.7-4.8L99,122.4c-6.5-6.5-6.5-16.9,0-23.4s16.9-6.5,23.4,0l24.8,24.8
		c6.4,6.5,6.4,16.9,0,23.3l0,0C144,150.2,139.8,151.9,135.4,151.9z M110.7,102.2c-4.7,0-8.5,3.8-8.5,8.5c0,2.3,0.9,4.4,2.5,6
		l24.8,24.7c3.5,3.1,8.9,2.8,12-0.7c2.9-3.2,2.9-8.1,0-11.3l-24.7-24.8C115.1,103.1,112.9,102.2,110.7,102.2L110.7,102.2z"/>
	<path class="st0" d="M38,256L38,256c0-6.9,5.6-12.5,12.5-12.5h35c6.9,0,12.5,5.6,12.5,12.5l0,0c0,6.9-5.6,12.5-12.5,12.5h-35
		C43.6,268.5,38,262.9,38,256z"/>
	<path class="st1" d="M85.5,272.5h-35c-9.1,0-16.5-7.4-16.5-16.5s7.4-16.5,16.5-16.5h35c9.1,0,16.5,7.4,16.5,16.5
		S94.6,272.5,85.5,272.5z M50.5,247.5c-4.7,0-8.5,3.8-8.5,8.5s3.8,8.5,8.5,8.5h35c4.7,0,8.5-3.8,8.5-8.5s-3.8-8.5-8.5-8.5H50.5z"/>
	<path class="st0" d="M101.9,410.1L101.9,410.1c-4.9-4.9-4.9-12.8,0-17.7l24.7-24.7c4.9-4.9,12.8-4.9,17.7,0l0,0
		c4.9,4.9,4.9,12.8,0,17.7l-24.7,24.7C114.6,415,106.7,415,101.9,410.1z"/>
	<path class="st1" d="M110.7,417.8c-9.1,0-16.5-7.3-16.5-16.5c0-4.4,1.7-8.6,4.8-11.7l24.8-24.8c6.5-6.4,16.9-6.4,23.3,0l0,0
		c6.4,6.5,6.4,16.9,0,23.3L122.4,413C119.3,416.1,115.1,417.8,110.7,417.8z M135.4,368.1c-2.3,0-4.4,0.9-6,2.5l-24.8,24.8
		c-3.5,3.1-3.8,8.5-0.7,12s8.5,3.8,12,0.7c0.2-0.2,0.5-0.5,0.7-0.7l24.7-24.8c3.3-3.3,3.3-8.7,0-12
		C139.8,368.9,137.7,368,135.4,368.1L135.4,368.1z"/>
	<path class="st0" d="M256,474L256,474c-6.9,0-12.5-5.6-12.5-12.5v-35c0-6.9,5.6-12.5,12.5-12.5l0,0c6.9,0,12.5,5.6,12.5,12.5v35
		C268.5,468.4,262.9,474,256,474z"/>
	<path class="st1" d="M256,478c-9.1,0-16.5-7.4-16.5-16.5v-35c0-9.1,7.4-16.5,16.5-16.5s16.5,7.4,16.5,16.5v35
		C272.5,470.6,265.1,478,256,478z M256,418c-4.7,0-8.5,3.8-8.5,8.5v35c0,4.7,3.8,8.5,8.5,8.5s8.5-3.8,8.5-8.5v-35
		C264.5,421.8,260.7,418,256,418z"/>
	<path class="st0" d="M410.1,410.2L410.1,410.2c-4.9,4.9-12.8,4.9-17.7,0l-24.7-24.7c-4.9-4.9-4.9-12.8,0-17.7l0,0
		c4.9-4.9,12.8-4.9,17.7,0l24.7,24.7C415,397.4,415,405.3,410.1,410.2z"/>
	<path class="st1" d="M401.3,417.8c-4.4,0-8.6-1.7-11.7-4.8l-24.8-24.8c-6.4-6.5-6.4-16.9,0-23.3l0,0c6.5-6.4,16.9-6.4,23.3,0
		l24.8,24.7c6.4,6.4,6.5,16.9,0,23.3C409.9,416.1,405.7,417.8,401.3,417.8L401.3,417.8z M370.5,370.5c-3.3,3.3-3.3,8.7,0,12
		l24.8,24.8c3.5,3.1,8.9,2.8,12-0.7c2.9-3.2,2.9-8.1,0-11.3l-24.8-24.8C379.2,367.3,373.9,367.3,370.5,370.5z"/>
	<path class="st0" d="M474,256L474,256c0,6.9-5.6,12.5-12.5,12.5h-35c-6.9,0-12.5-5.6-12.5-12.5l0,0c0-6.9,5.6-12.5,12.5-12.5h35
		C468.4,243.5,474,249.1,474,256z"/>
	<path class="st1" d="M461.5,272.5h-35c-9.1,0-16.5-7.4-16.5-16.5s7.4-16.5,16.5-16.5h35c9.1,0,16.5,7.4,16.5,16.5
		S470.6,272.5,461.5,272.5z M426.5,247.5c-4.7,0-8.5,3.8-8.5,8.5s3.8,8.5,8.5,8.5l0,0h35c4.7,0,8.5-3.8,8.5-8.5s-3.8-8.5-8.5-8.5
		H426.5z"/>
	<path class="st0" d="M410.2,101.9L410.2,101.9c4.9,4.9,4.9,12.8,0,17.7l-24.7,24.7c-4.9,4.9-12.8,4.9-17.7,0l0,0
		c-4.9-4.9-4.9-12.8,0-17.7l24.7-24.7C397.4,97,405.3,97,410.2,101.9z"/>
	<path class="st1" d="M376.6,151.9c-4.4,0-8.6-1.7-11.7-4.8l0,0c-6.4-6.5-6.4-16.9,0-23.3L389.6,99c6.5-6.5,16.9-6.5,23.4,0
		s6.5,16.9,0,23.4l0,0l-24.8,24.8C385.1,150.2,380.9,151.9,376.6,151.9z M370.6,141.4c3.3,3.3,8.7,3.3,12,0l24.8-24.8
		c3.5-3.1,3.8-8.5,0.7-12c-3.1-3.5-8.5-3.8-12-0.7c-0.2,0.2-0.5,0.5-0.7,0.7l-24.8,24.8C367.3,132.8,367.3,138.1,370.6,141.4z"/>
	<path class="st1" d="M256,390c-73.9,0-134-60.1-134-134s60.1-134,134-134c22.1,0,43.8,5.4,63.3,15.9c1.9,1.1,2.6,3.5,1.6,5.4
		c-1,1.9-3.4,2.6-5.4,1.6c-61.3-32.8-137.6-9.7-170.5,51.6s-9.7,137.6,51.6,170.5s137.6,9.7,170.5-51.6
		c20.1-37.6,19.9-82.7-0.7-120.1c-1.1-1.9-0.5-4.3,1.4-5.5s4.3-0.5,5.5,1.4c0.1,0.1,0.1,0.2,0.2,0.3c10.9,19.8,16.6,42,16.6,64.6
		C390,329.9,329.9,390,256,390z"/>
	<path class="st1" d="M355.1,178.2c-6.4-8.1-13.7-15.4-21.8-21.7l4.9-6.3c8.6,6.7,16.4,14.5,23.2,23.1L355.1,178.2z"/>
	
		<rect x="425.6" y="302.7" transform="matrix(0.3827 -0.9239 0.9239 0.3827 -37.7645 599.2742)" class="st1" width="8" height="50.4"/>
	
		<rect x="78.4" y="158.9" transform="matrix(0.3827 -0.9239 0.9239 0.3827 -119.2026 189.8231)" class="st1" width="8" height="50.4"/>
	
		<rect x="404.3" y="180.1" transform="matrix(0.9239 -0.3827 0.3827 0.9239 -37.7615 178.3998)" class="st1" width="50.4" height="8"/>
	
		<rect x="57.2" y="323.9" transform="matrix(0.9239 -0.3827 0.3827 0.9239 -119.2042 56.505)" class="st1" width="50.4" height="8"/>
	
		<rect x="302.7" y="78.4" transform="matrix(0.3827 -0.9239 0.9239 0.3827 126.245 353.8142)" class="st1" width="50.4" height="8"/>
	
		<rect x="158.9" y="425.6" transform="matrix(0.3827 -0.9239 0.9239 0.3827 -283.1999 435.2615)" class="st1" width="50.4" height="8"/>
	
		<rect x="180.1" y="57.2" transform="matrix(0.9239 -0.3827 0.3827 0.9239 -17.5331 76.7326)" class="st1" width="8" height="50.4"/>
	
		<rect x="323.9" y="404.3" transform="matrix(0.9239 -0.3827 0.3827 0.9239 -139.428 158.1753)" class="st1" width="8" height="50.4"/>
</g>
</svg>
